<svg width="168.49" height="30" viewBox="0 0 1230 219" fill="none" xmlns="http://www.w3.org/2000/svg">
<path d="M36.4304 82.3878H70.0584V189.436H36.4304V82.3878Z" fill="#6986C2"/>
<path d="M70.0589 81.8274H104.247V189.436H70.0589V81.8274Z" fill="white"/>
<rect width="48.6234" height="47.2769" transform="matrix(0.711183 -0.703007 0.703015 0.711175 36.4304 82.3878)" fill="#264480"/>
<rect width="45.9581" height="101.444" transform="matrix(0.707023 -0.707191 0.707198 0.707015 0 32.5011)" fill="#6986C2"/>
<rect width="45.9581" height="101.444" transform="matrix(-0.706791 -0.707423 0.70743 -0.706783 71.7155 104.211)" fill="white"/>
<path d="M70.1084 218.756L36.5254 189.436L103.88 189.653L70.1084 218.756Z" fill="#6986C2"/>
<path d="M70.0585 218.86L36.4305 189.436L104.247 189.436L70.0585 218.86Z" fill="white"/>
<path d="M141.425 170L196.025 47.5H224.025L278.8 170H249.05L204.25 61.85H215.45L170.475 170H141.425ZM168.725 143.75L176.25 122.225H239.25L246.95 143.75H168.725ZM316.884 142L315.309 109.275L373.934 47.5H405.434L352.584 104.375L336.834 121.175L316.884 142ZM291.509 170V47.5H319.684V170H291.509ZM375.334 170L331.759 116.625L350.309 96.5L408.409 170H375.334ZM421.05 170V47.5H449.4V170H421.05ZM478.472 170V47.5H501.922L574.197 135.7H562.822V47.5H590.822V170H567.547L495.097 81.8H506.472V170H478.472ZM645.18 142L643.605 109.275L702.23 47.5H733.73L680.88 104.375L665.13 121.175L645.18 142ZM619.805 170V47.5H647.98V170H619.805ZM703.63 170L660.055 116.625L678.605 96.5L736.705 170H703.63ZM775.421 96.85H834.396V118.9H775.421V96.85ZM777.521 147.25H844.196V170H749.346V47.5H841.921V70.25H777.521V147.25ZM866.754 170V47.5H919.779C930.745 47.5 940.195 49.3083 948.129 52.925C956.062 56.425 962.187 61.5 966.504 68.15C970.82 74.8 972.979 82.7333 972.979 91.95C972.979 101.05 970.82 108.925 966.504 115.575C962.187 122.108 956.062 127.125 948.129 130.625C940.195 134.125 930.745 135.875 919.779 135.875H882.504L895.104 123.45V170H866.754ZM944.629 170L914.004 125.55H944.279L975.254 170H944.629ZM895.104 126.6L882.504 113.3H918.204C926.954 113.3 933.487 111.433 937.804 107.7C942.12 103.85 944.279 98.6 944.279 91.95C944.279 85.1833 942.12 79.9333 937.804 76.2C933.487 72.4667 926.954 70.6 918.204 70.6H882.504L895.104 57.125V126.6ZM1016.31 172.1C1008.02 172.1 1000.38 170.583 993.381 167.55C986.498 164.4 980.839 159.967 976.406 154.25L992.156 135.35C995.539 139.783 999.098 143.167 1002.83 145.5C1006.56 147.717 1010.59 148.825 1014.91 148.825C1026.46 148.825 1032.23 142.058 1032.23 128.525V70.25H989.181V47.5H1060.41V126.95C1060.41 142.117 1056.67 153.433 1049.21 160.9C1041.74 168.367 1030.77 172.1 1016.31 172.1ZM1069.75 170L1124.35 47.5H1152.35L1207.12 170H1177.37L1132.57 61.85H1143.77L1098.8 170H1069.75ZM1097.05 143.75L1104.57 122.225H1167.57L1175.27 143.75H1097.05Z" fill="white"/>
</svg>
