<svg width="168.49" height="30" viewBox="0 0 1230 219" fill="none" xmlns="http://www.w3.org/2000/svg">
<path d="M36.43 82.3878H70.0577V189.436H36.43V82.3878Z" fill="#6986C2"/>
<path d="M70.0576 81.8274H104.246V189.436H70.0576V81.8274Z" fill="#051843"/>
<rect x="36.43" y="82.3878" width="48.6232" height="47.2767" transform="rotate(-44.6691 36.43 82.3878)" fill="#264480"/>
<rect y="32.5011" width="45.9578" height="101.443" transform="rotate(-45.0071 0 32.5011)" fill="#264480"/>
<rect x="71.7147" y="104.211" width="45.9578" height="101.443" transform="rotate(-134.974 71.7147 104.211)" fill="#051843"/>
<path d="M70.1067 218.756L36.5241 189.436L103.878 189.653L70.1067 218.756Z" fill="#6986C2"/>
<path d="M70.0577 218.86L36.43 189.436L104.246 189.436L70.0577 218.86Z" fill="#051843"/>
<path d="M141.425 169L196.025 46.5H224.025L278.8 169H249.05L204.25 60.85H215.45L170.475 169H141.425ZM168.725 142.75L176.25 121.225H239.25L246.95 142.75H168.725ZM316.884 141L315.309 108.275L373.934 46.5H405.434L352.584 103.375L336.834 120.175L316.884 141ZM291.509 169V46.5H319.684V169H291.509ZM375.334 169L331.759 115.625L350.309 95.5L408.409 169H375.334ZM421.05 169V46.5H449.4V169H421.05ZM478.472 169V46.5H501.922L574.197 134.7H562.822V46.5H590.822V169H567.547L495.097 80.8H506.472V169H478.472ZM645.18 141L643.605 108.275L702.23 46.5H733.73L680.88 103.375L665.13 120.175L645.18 141ZM619.805 169V46.5H647.98V169H619.805ZM703.63 169L660.055 115.625L678.605 95.5L736.705 169H703.63ZM775.421 95.85H834.396V117.9H775.421V95.85ZM777.521 146.25H844.196V169H749.346V46.5H841.921V69.25H777.521V146.25ZM866.754 169V46.5H919.779C930.745 46.5 940.195 48.3083 948.129 51.925C956.062 55.425 962.187 60.5 966.504 67.15C970.82 73.8 972.979 81.7333 972.979 90.95C972.979 100.05 970.82 107.925 966.504 114.575C962.187 121.108 956.062 126.125 948.129 129.625C940.195 133.125 930.745 134.875 919.779 134.875H882.504L895.104 122.45V169H866.754ZM944.629 169L914.004 124.55H944.279L975.254 169H944.629ZM895.104 125.6L882.504 112.3H918.204C926.954 112.3 933.487 110.433 937.804 106.7C942.12 102.85 944.279 97.6 944.279 90.95C944.279 84.1833 942.12 78.9333 937.804 75.2C933.487 71.4667 926.954 69.6 918.204 69.6H882.504L895.104 56.125V125.6ZM1016.31 171.1C1008.02 171.1 1000.38 169.583 993.381 166.55C986.498 163.4 980.839 158.967 976.406 153.25L992.156 134.35C995.539 138.783 999.098 142.167 1002.83 144.5C1006.56 146.717 1010.59 147.825 1014.91 147.825C1026.46 147.825 1032.23 141.058 1032.23 127.525V69.25H989.181V46.5H1060.41V125.95C1060.41 141.117 1056.67 152.433 1049.21 159.9C1041.74 167.367 1030.77 171.1 1016.31 171.1ZM1069.75 169L1124.35 46.5H1152.35L1207.12 169H1177.37L1132.57 60.85H1143.77L1098.8 169H1069.75ZM1097.05 142.75L1104.57 121.225H1167.57L1175.27 142.75H1097.05Z" fill="#051843"/>
</svg>
